<?xml version="1.0" standalone="no"?>
<!DOCTYPE svg PUBLIC "-//W3C//DTD SVG 20010904//EN"
 "http://www.w3.org/TR/2001/REC-SVG-20010904/DTD/svg10.dtd">
<svg version="1.0" xmlns="http://www.w3.org/2000/svg"
 width="480.000000pt" height="270.000000pt" viewBox="0 0 480.000000 270.000000"
 preserveAspectRatio="xMidYMid meet">

<g transform="translate(0.000000,270.000000) scale(0.100000,-0.100000)"
fill="#000000" stroke="none">
<path d="M1622 1523 c-29 -11 -46 -68 -51 -180 -6 -108 -3 -123 24 -123 1 0 5
16 8 36 7 40 46 104 64 104 7 0 11 -22 10 -67 -2 -79 14 -92 57 -46 25 27 26
27 26 5 0 -37 30 -39 61 -4 l28 31 3 -27 c5 -41 32 -35 36 8 4 36 44 100 64
100 7 0 8 -21 3 -64 -6 -61 -5 -65 16 -71 18 -6 28 -1 50 26 16 19 29 28 29
22 0 -22 39 -53 66 -53 30 0 84 50 84 78 0 11 7 23 16 26 21 8 21 8 21 -11 -1
-60 4 -74 29 -85 34 -16 88 12 105 56 25 62 55 62 50 0 -2 -25 1 -50 7 -56 25
-25 73 20 102 97 15 39 4 28 -25 -26 -38 -72 -49 -64 -41 30 6 79 6 82 -13 72
-11 -6 -21 -21 -23 -33 -5 -34 -44 -36 -52 -3 -5 18 -15 27 -36 32 -22 4 -30
11 -31 27 0 11 -7 0 -15 -26 -8 -27 -17 -48 -21 -48 -8 0 6 96 19 128 l11 27
7 -30 8 -30 1 30 c1 45 -12 61 -33 39 -24 -23 -37 -59 -45 -119 -4 -36 -11
-51 -23 -53 -12 -2 -18 3 -18 16 0 10 -9 27 -21 37 -18 18 -23 18 -62 5 -25
-9 -46 -25 -54 -40 -6 -14 -20 -43 -31 -64 -31 -67 -45 -59 -41 25 4 69 3 74
-17 77 -16 2 -30 -9 -54 -45 l-32 -48 7 55 7 54 -23 -16 c-17 -11 -25 -27 -27
-54 -3 -38 -35 -94 -53 -94 -13 0 -11 65 3 111 13 47 6 59 -22 34 -13 -11 -20
-31 -20 -53 0 -36 -27 -92 -45 -92 -7 0 -9 27 -7 75 4 71 3 75 -17 75 -13 0
-30 -14 -47 -40 -15 -22 -28 -40 -30 -40 -10 0 4 162 16 173 10 10 11 3 7 -33
-2 -25 -8 -54 -11 -65 -3 -11 0 -6 8 10 16 32 21 111 9 118 -5 2 -14 2 -21 0z
m546 -165 c2 -19 -1 -28 -10 -28 -20 0 -38 21 -38 43 0 32 44 18 48 -15z m-30
-43 c35 -10 41 -29 15 -57 -20 -22 -37 -23 -57 -2 -17 16 -21 79 -9 111 6 15
8 13 13 -12 4 -23 12 -32 38 -40z m212 46 c13 -26 13 -31 -4 -31 -19 0 -48 29
-41 41 10 15 34 10 45 -10z m0 -73 c0 -10 -12 -25 -26 -35 -25 -16 -27 -16
-40 2 -14 18 -19 67 -9 77 11 10 74 -27 75 -44z"/>
<path d="M3196 1514 c-9 -8 -18 -25 -21 -37 -26 -120 -22 -249 7 -255 19 -4
58 31 58 51 -1 7 -6 5 -14 -5 -7 -10 -18 -18 -25 -18 -18 0 -13 84 9 140 11
28 20 61 19 73 -1 12 -6 2 -12 -23 -8 -35 -12 -40 -15 -21 -5 32 7 91 18 91 6
0 10 5 10 10 0 15 -16 12 -34 -6z"/>
<path d="M1394 1501 c-56 -34 -50 -84 13 -121 86 -52 103 -88 60 -128 -25 -24
-57 -28 -88 -12 -20 11 -27 50 -9 50 6 0 10 5 10 10 0 19 -48 11 -55 -10 -26
-81 125 -109 184 -33 40 50 18 96 -70 148 -44 26 -52 69 -15 86 30 14 56 6 63
-21 7 -25 19 -26 28 -3 8 23 -28 53 -64 53 -14 0 -40 -9 -57 -19z"/>
<path d="M2702 1503 c-35 -17 -51 -56 -35 -82 5 -9 33 -32 62 -51 63 -42 74
-60 62 -94 -18 -46 -84 -62 -114 -28 -21 23 -22 42 -1 42 8 0 12 5 9 10 -11
17 -44 11 -55 -11 -18 -33 10 -66 62 -74 77 -12 138 29 138 90 0 40 -15 57
-83 97 -51 30 -59 54 -28 82 27 24 65 17 69 -12 4 -28 26 -24 30 6 3 16 -4 25
-23 32 -36 14 -54 12 -93 -7z"/>
<path d="M2914 1502 c-6 -4 -15 -26 -19 -49 -4 -27 -12 -43 -21 -43 -17 0 -19
-17 -3 -22 7 -2 12 -35 13 -83 1 -71 3 -80 21 -83 12 -3 27 6 42 24 l22 28 10
-27 c16 -42 51 -31 88 29 11 18 12 18 12 -5 1 -13 -16 -44 -39 -71 -55 -65
-68 -105 -45 -130 24 -26 51 -25 79 3 19 19 24 38 29 106 4 48 13 91 20 100
26 30 31 47 8 26 l-22 -19 7 64 7 65 -22 -19 c-11 -11 -21 -30 -21 -44 0 -31
-39 -102 -57 -102 -15 0 -18 68 -4 117 11 38 5 46 -20 30 -12 -7 -19 -23 -19
-42 0 -38 -32 -99 -54 -103 -18 -4 -20 9 -10 82 6 40 11 49 38 61 l31 14 -33
-6 -32 -6 6 57 c7 58 6 61 -12 48z m151 -409 c-7 -31 -43 -31 -51 1 -5 22 13
72 40 105 9 11 12 4 14 -34 2 -27 1 -59 -3 -72z"/>
<path d="M1787 1493 c-4 -3 -7 -15 -7 -25 0 -26 24 -17 28 10 3 21 -8 29 -21
15z"/>
<path d="M2453 1493 c-7 -2 -13 -14 -13 -25 0 -28 34 -19 38 10 3 22 -2 25
-25 15z"/>
<path d="M3425 1386 c-14 -14 -25 -37 -25 -52 0 -41 -36 -84 -70 -84 -19 0
-33 7 -40 19 -14 27 -13 31 9 31 33 0 72 39 69 69 -2 21 -9 27 -35 29 -60 6
-108 -80 -78 -139 29 -54 91 -48 136 14 22 30 30 36 35 24 3 -8 -2 -27 -12
-42 -24 -37 -5 -56 34 -34 21 11 27 23 27 47 0 23 8 39 30 58 19 15 22 21 9
15 -11 -5 -26 -17 -34 -26 -18 -21 -40 -1 -40 37 0 32 26 49 42 27 7 -11 8 -9
6 6 -5 29 -34 30 -63 1z m-82 -8 c8 -21 -10 -56 -33 -63 -31 -10 -36 1 -17 40
17 35 41 46 50 23z m105 -146 c-7 -8 -14 -10 -21 -3 -7 7 -6 15 3 26 10 12 15
13 21 3 4 -7 3 -18 -3 -26z"/>
</g>
</svg>
