<svg xmlns="http://www.w3.org/2000/svg" width="512" height="512" viewBox="0 0 512 512" version="1.1">
	<path
		d="M 216.346 35.551 C 206.640 37.680, 194.753 42.676, 186.369 48.149 C 171.083 58.128, 160.370 71.768, 152.986 90.654 C 147.028 105.893, 147.191 105.626, 143.073 106.860 C 137.253 108.604, 136.383 111.225, 138.311 121.206 C 142.144 141.050, 142.838 152.722, 140.833 163.603 L 139.666 169.936 144.347 174.940 C 146.922 177.693, 149.506 181.195, 150.090 182.722 C 150.674 184.250, 153.588 196.525, 156.567 210 C 159.546 223.475, 163.369 239.380, 165.063 245.345 C 166.757 251.310, 167.948 256.385, 167.710 256.623 C 167.472 256.861, 166.012 256.575, 164.465 255.987 C 156.848 253.091, 145.769 260.035, 143.500 269.129 C 142.942 271.366, 142.179 271.832, 138.381 272.260 C 133.212 272.843, 130 275.302, 130 278.675 C 130 279.976, 131.125 283.808, 132.500 287.192 C 135.455 294.464, 135.390 294, 133.457 294 C 131.760 294, 86.695 337.499, 86.181 339.633 C 85.797 341.225, 91.385 351.963, 94.130 354.909 C 95.238 356.098, 97.324 357, 98.968 357 C 102.642 357, 105 359.345, 105 363 C 105 366.732, 107.368 368.992, 111.321 369.032 C 113.070 369.049, 115.374 369.724, 116.441 370.532 C 121.435 374.309, 123.680 371.876, 129.982 355.853 C 135.358 342.184, 141.342 328.324, 142.267 327.399 C 142.597 327.070, 142.224 329.433, 141.439 332.650 C 135.112 358.590, 130.999 384.364, 129.014 410.500 C 128.388 418.750, 127.431 428.365, 126.888 431.866 C 125.652 439.839, 126.222 440.576, 138.362 446.678 C 179.589 467.401, 248.954 483.983, 284.236 481.550 C 295.981 480.740, 298.625 479.559, 301.606 473.795 C 303.134 470.839, 303.082 470.636, 299.416 465.314 C 293.546 456.790, 287.988 435.446, 287.357 419 C 287.093 412.125, 287.275 402.450, 287.761 397.500 C 288.585 389.117, 288.728 388.706, 289.840 391.500 C 292.966 399.353, 294.740 402.797, 297.593 406.543 L 300.686 410.605 298.343 414.024 C 294.973 418.943, 295.301 422.823, 299.500 427.729 C 301.425 429.978, 303 432.645, 303 433.656 C 303 434.666, 301.833 438.998, 300.406 443.281 C 297.497 452.016, 297.860 453.414, 303.319 454.510 C 310.549 455.963, 310.160 455.320, 309.410 464.561 C 308.581 474.774, 308.841 474.976, 319.168 472.130 C 333.669 468.133, 359.597 463.224, 388.500 459.003 C 405.429 456.531, 406 456.366, 406 453.952 C 406 451.416, 402.463 450.500, 392.666 450.500 L 384.832 450.500 389.424 446.500 C 391.950 444.300, 394.013 442.251, 394.008 441.947 C 393.989 440.675, 346.666 445.954, 333.601 448.684 C 331.643 449.093, 330.921 448.937, 331.375 448.202 C 331.745 447.604, 336.548 445.640, 342.049 443.837 C 352.596 440.379, 354.303 439.273, 369.199 426.234 C 378.127 418.419, 389.468 411.980, 402.229 407.481 C 412.660 403.803, 412.984 403.290, 409.493 395.986 C 406.901 390.561, 406.764 389.730, 407.867 386.051 C 408.887 382.645, 408.816 381.544, 407.397 378.801 L 405.724 375.567 411.106 371.033 C 414.066 368.540, 418.704 364.426, 421.412 361.891 L 426.337 357.281 424.309 354.391 C 423.193 352.801, 419.242 346.100, 415.529 339.500 C 411.815 332.900, 406.352 323.830, 403.389 319.345 C 400.413 314.843, 398 310.049, 398 308.642 C 398 302.752, 393.847 298.525, 378.213 288.500 C 373.002 285.158, 371.795 283.844, 370.886 280.516 C 370.287 278.324, 368.455 274.837, 366.814 272.766 L 363.832 269 366.287 269 C 367.968 269, 369.492 270.098, 371.121 272.481 C 373.034 275.280, 374.529 276.193, 378.750 277.140 C 383.641 278.238, 384.010 278.530, 384.152 281.409 C 384.236 283.109, 384.409 284.950, 384.537 285.500 C 384.665 286.050, 384.821 286.994, 384.885 287.598 C 385.004 288.732, 392.717 292.630, 393.409 291.906 C 393.623 291.683, 395.692 287.282, 398.008 282.126 C 401.044 275.366, 401.885 272.547, 401.024 272.015 C 400.367 271.609, 396.065 270.487, 391.464 269.521 C 386.287 268.435, 382.446 267.046, 381.388 265.877 C 380.448 264.838, 379.904 263.763, 380.178 263.489 C 380.453 263.214, 386.262 260.244, 393.089 256.889 C 399.915 253.534, 405.662 250.637, 405.860 250.451 C 406.059 250.265, 403.709 247.152, 400.639 243.533 C 397.569 239.914, 393.887 234.956, 392.456 232.515 L 389.855 228.077 381.105 235.789 C 376.292 240.030, 371.162 244.132, 369.706 244.904 C 367.182 246.241, 366.842 246.109, 362.474 242.083 L 357.891 237.858 354.047 243.805 C 349.339 251.090, 341.567 259.356, 339.936 258.812 C 339.275 258.592, 338.231 256.882, 337.617 255.012 C 336.723 252.291, 335.353 251.049, 330.750 248.784 C 324.370 245.646, 324.030 244.738, 326.120 236.439 C 327.547 230.769, 326.790 229.822, 318.432 226.825 C 312.061 224.540, 312 224.482, 312 220.731 C 312 217.427, 312.703 216.290, 317.500 211.824 C 323.965 205.807, 324.422 203.374, 319.813 199.496 C 317.165 197.268, 316.825 196.535, 317.801 195.158 C 321.969 189.271, 322.199 188.127, 320.001 184.215 L 317.914 180.500 323.919 174.326 C 330.957 167.090, 332.123 164.011, 329.284 160.170 C 325.106 154.519, 324.049 151.390, 324.620 146.365 C 324.924 143.689, 324.704 132.976, 324.132 122.557 C 323.243 106.371, 322.807 103.231, 321.140 100.976 C 320.067 99.525, 317.070 94.099, 314.481 88.919 C 307.569 75.094, 302.015 67.233, 293.281 58.911 C 275.001 41.493, 256.416 33.870, 232.792 34.100 C 227.131 34.156, 219.731 34.808, 216.346 35.551 M 216.381 49.911 C 200.056 54.342, 186.078 64.601, 177.608 78.366 C 173.110 85.675, 170.191 92.525, 171.161 93.495 C 171.461 93.794, 174.810 93.275, 178.603 92.342 C 183.596 91.112, 189.779 90.645, 201 90.649 C 217.527 90.655, 228.756 92.406, 244.670 97.460 L 252.219 99.857 254.449 97.265 C 256.430 94.961, 257.810 94.557, 266.839 93.633 C 274.903 92.808, 276.997 92.274, 276.987 91.047 C 276.967 88.729, 268.246 71.667, 262 61.725 C 256.856 53.537, 256.144 52.835, 251 50.872 C 242.905 47.783, 225.952 47.312, 216.381 49.911 M 278.230 99.502 C 271.751 101.306, 267 103.691, 267 105.140 C 267 105.738, 268.112 110.789, 269.470 116.364 C 275.979 143.073, 277.805 164.003, 276.131 192.724 C 275.479 203.914, 274.024 218.496, 272.898 225.127 C 271.772 231.758, 271.046 237.379, 271.285 237.618 C 271.524 237.857, 273.333 236.266, 275.306 234.083 C 281.532 227.192, 283.835 213.878, 284.666 179.985 C 285.295 154.297, 284.226 135.350, 281.423 122.500 C 280.583 118.650, 279.635 114.037, 279.317 112.250 L 278.738 109 283.619 109.011 C 289.361 109.024, 295.720 110.811, 302.816 114.407 C 305.631 115.833, 308.231 117, 308.594 117 C 308.957 117, 309.035 114.716, 308.767 111.926 C 308.219 106.226, 305.738 102.216, 301.410 100.032 C 297.381 97.999, 284.670 97.709, 278.230 99.502 M 188.254 101.494 C 174.231 104.037, 160.575 112.800, 158.180 120.792 C 157.531 122.959, 157.014 126.930, 157.032 129.616 L 157.064 134.500 161.782 129.355 C 167.734 122.864, 177.534 115.607, 179.388 116.319 C 180.164 116.616, 181.355 118.579, 182.035 120.680 C 182.714 122.781, 184.090 126.132, 185.092 128.126 L 186.914 131.752 183.385 132.325 C 178.614 133.099, 166.146 139.361, 162.201 142.963 C 159.524 145.409, 159 146.610, 159 150.306 L 159 154.724 167.250 150.375 C 178.720 144.329, 191.190 140.505, 209.148 137.528 C 228.213 134.368, 238.401 131.991, 237.324 130.955 C 235.856 129.542, 224.848 128, 216.233 128 C 209.959 128, 207.938 127.684, 208.248 126.750 C 208.806 125.066, 226.269 124.577, 235.380 125.991 C 239.171 126.579, 242.480 126.853, 242.733 126.600 C 243.570 125.763, 235.595 122.268, 230 121.019 C 226.975 120.344, 217.750 119.554, 209.500 119.263 C 194.645 118.738, 191.903 118.026, 194.180 115.284 C 195.530 113.656, 220.366 113.515, 231.549 115.070 C 238.069 115.977, 247.874 118.480, 253.767 120.741 C 255.984 121.591, 254.512 116.224, 251.676 113.114 C 247.329 108.348, 233.647 103.756, 217 101.477 C 204.372 99.748, 197.865 99.752, 188.254 101.494 M 289.070 120.733 C 289.109 122.805, 289.474 125.349, 289.881 126.387 C 290.597 128.210, 309 137.622, 309 136.164 C 309 135.086, 304.029 127.836, 301.110 124.657 C 299.675 123.093, 296.363 120.723, 293.750 119.390 L 289 116.966 289.070 120.733 M 172.114 127.566 C 169.256 130.693, 167.076 133.409, 167.268 133.602 C 167.461 133.795, 169.960 133.063, 172.820 131.976 C 175.681 130.889, 178.907 130, 179.989 130 C 181.751 130, 181.835 129.712, 180.794 127.250 C 178.338 121.444, 177.688 121.467, 172.114 127.566 M 291.545 151.194 C 291.839 157.962, 292.269 165.027, 292.500 166.893 C 293.140 172.055, 291.083 206.538, 289.645 214.750 C 288.947 218.738, 288.657 222, 289.001 222 C 289.345 222, 290.924 220.645, 292.510 218.989 C 295.219 216.162, 295.440 215.294, 296.128 204.739 C 296.531 198.558, 296.892 185.485, 296.930 175.689 L 297 157.879 303.922 158.561 L 310.844 159.243 310 155.499 C 308.921 150.715, 304.310 145.977, 296.879 142.016 L 291.011 138.889 291.545 151.194 M 219.573 142.677 C 204.809 144.658, 187.453 149.159, 179.525 153.062 C 175.936 154.829, 173 156.642, 173 157.090 C 173 157.539, 174.674 158.368, 176.721 158.933 C 179.890 159.808, 181.398 159.578, 186.897 157.378 C 197.134 153.283, 210.779 150.205, 230.348 147.580 C 250.115 144.927, 252 144.476, 252 142.393 C 252 140.516, 234.531 140.669, 219.573 142.677 M 236.500 153.648 C 228.518 155.341, 215.512 160.318, 205.687 165.439 C 201.999 167.361, 196.736 169.231, 193.991 169.596 L 189 170.258 189 177.498 L 189 184.739 182.750 187.446 C 176.437 190.180, 169.469 194.802, 170.343 195.676 C 170.603 195.937, 172.599 194.970, 174.778 193.528 C 184.126 187.342, 187.520 186.677, 213 186.044 C 239.037 185.397, 241.253 184.889, 245.056 178.701 C 246.980 175.570, 251.248 162.915, 250.599 162.266 C 250.419 162.086, 247.960 161.664, 245.136 161.330 L 240 160.721 240.613 165.192 C 241.773 173.656, 235.902 179.835, 227.972 178.495 C 223.506 177.741, 219 174.001, 219 171.048 C 219 167.704, 217.175 168.640, 210.315 175.500 C 206.740 179.075, 203.406 182, 202.907 182 C 202.408 182, 202 180.406, 202 178.457 C 202 170.640, 217.274 159.611, 231.652 157.045 C 238.171 155.882, 243.550 156.564, 251.750 159.595 C 256.439 161.328, 256.417 161.299, 255.006 163.764 C 254.459 164.719, 253.044 168.200, 251.861 171.500 C 250.400 175.577, 248.220 179.003, 245.057 182.192 C 239.848 187.442, 239.730 187.274, 249.500 188.532 C 254.233 189.141, 254.588 189.024, 256.154 186.338 C 258.630 182.088, 260.772 173.449, 261.515 164.710 C 262.050 158.423, 261.867 156.446, 260.566 154.460 C 259.074 152.184, 258.376 152.006, 251.227 152.082 C 246.977 152.126, 240.350 152.831, 236.500 153.648 M 200 193.925 C 188.916 195.555, 180.270 198.830, 176.738 202.735 C 175.100 204.547, 175.087 204.992, 176.547 209.092 C 177.410 211.516, 179.230 218.675, 180.591 225 C 185.721 248.837, 188.826 257.315, 194.997 264.344 C 197.948 267.705, 198.167 267.773, 208.397 268.470 C 217.456 269.087, 219.166 268.947, 221.649 267.386 C 229.427 262.494, 252.793 245.887, 254.408 244.101 C 257.137 241.086, 259.710 230.594, 261.593 214.805 C 262.998 203.027, 263.047 200.647, 261.904 199.940 C 260.503 199.075, 251.084 196.906, 240.500 195.011 C 232.568 193.591, 206.943 192.904, 200 193.925 M 251.601 212.250 C 251.332 214.037, 250.726 218.746, 250.254 222.714 L 249.396 229.928 252.270 230.559 C 253.850 230.906, 255.313 231.021, 255.520 230.813 C 255.728 230.606, 256.438 226.219, 257.099 221.065 C 258.220 212.328, 258.176 211.602, 256.459 210.347 C 253.532 208.206, 252.127 208.757, 251.601 212.250 M 305 237.450 C 289.951 241.494, 260.076 259.375, 237.905 277.609 C 232.628 281.949, 224.216 288.875, 219.211 293 C 214.207 297.125, 210.087 300.852, 210.056 301.281 C 209.868 303.905, 214.065 302.395, 222.692 296.736 C 237.288 287.162, 265.095 270.918, 286 259.752 C 305.792 249.182, 311 245.082, 311 240.074 C 311 236.254, 310.409 235.996, 305 237.450 M 378.163 251.691 C 375.365 252.681, 374.169 253.569, 374.794 254.194 C 375.686 255.086, 384 251.732, 384 250.480 C 384 249.776, 382.985 249.986, 378.163 251.691 M 355.102 259.586 C 351.031 262.478, 351.150 262.511, 357.271 260.187 C 359.895 259.190, 361.732 258.065, 361.354 257.687 C 360.232 256.565, 358.697 257.032, 355.102 259.586 M 309 260.640 C 301.507 262.626, 285.860 270.400, 272 279.024 C 253.297 290.661, 232.935 304.268, 233.452 304.785 C 233.716 305.050, 241.477 300.594, 250.697 294.883 C 267.545 284.449, 288.919 273.252, 307.500 265.128 C 313 262.723, 317.928 260.360, 318.450 259.878 C 319.845 258.589, 315.377 258.949, 309 260.640 M 165.031 269.250 C 163.607 271.459, 162.428 282.906, 163.761 281.572 C 164.976 280.358, 168.631 269.393, 168.226 268.178 C 167.638 266.413, 166.645 266.745, 165.031 269.250 M 300.500 274.423 C 288.264 278.940, 284.075 280.850, 273 286.963 C 259.182 294.589, 259.598 295.151, 273.814 288.061 C 280.587 284.684, 291.586 279.677, 298.256 276.935 C 304.926 274.193, 310.597 271.736, 310.858 271.475 C 311.880 270.453, 309.139 271.233, 300.500 274.423 M 318.734 278.432 C 308.645 282.032, 294.172 293.697, 286.559 304.365 C 284.136 307.760, 282.007 311.100, 281.827 311.786 C 281.647 312.471, 283.397 313.896, 285.715 314.952 L 289.930 316.871 294.871 310.686 C 301.366 302.554, 315.920 288.465, 323.714 282.761 C 329.247 278.713, 329.686 278.150, 327.714 277.621 C 324.549 276.772, 322.989 276.913, 318.734 278.432 M 146.647 283.219 C 148.300 288.822, 149.004 290.230, 148.994 287.917 C 148.985 285.460, 146.965 279.097, 146.008 278.505 C 145.502 278.192, 145.790 280.314, 146.647 283.219 M 336.500 283.689 C 328.316 288.078, 305.679 307.567, 299.064 315.919 L 295.917 319.893 298.643 321.321 C 301.267 322.696, 301.485 322.608, 304.548 318.942 C 311.983 310.043, 330.652 295.881, 345.518 287.862 C 352.672 284.003, 353.212 283.512, 350.978 282.890 C 346.552 281.657, 339.571 282.042, 336.500 283.689 M 351.867 302.836 C 338.085 310.385, 325.960 318.557, 318.693 325.195 C 313.579 329.867, 312.526 331.515, 309.865 339 C 302.873 358.669, 302.730 359.260, 302.614 369 C 302.502 378.343, 304.640 391.874, 305.979 390.302 C 306.356 389.861, 307.212 384.325, 307.882 378 C 309.577 361.997, 317.222 340.003, 321.685 338.291 C 326.197 336.559, 327.712 346.586, 326.250 368.500 C 325.380 381.541, 324.703 385.770, 322.591 391.369 C 321.166 395.147, 320 398.448, 320 398.705 C 320 399.677, 329.158 393.994, 336.667 388.362 C 340.964 385.138, 353.001 374.186, 363.415 364.024 C 373.829 353.862, 382.514 346.041, 382.715 346.644 C 383.222 348.167, 378.460 360.539, 375.275 365.975 C 373.825 368.448, 370.583 372.701, 368.070 375.426 L 363.500 380.382 367.500 378.012 C 379.628 370.827, 400.287 351.651, 401.628 346.334 C 402.849 341.495, 390.656 316.921, 382.811 308.411 C 379.153 304.442, 366.769 296.993, 363.854 297.006 C 363.109 297.010, 357.715 299.633, 351.867 302.836 M 165.299 303.097 C 165.631 305.519, 165.404 309.186, 164.794 311.247 C 163.834 314.490, 163.942 315.280, 165.593 317.119 C 169.568 321.547, 186.509 331.824, 187.764 330.570 C 188.077 330.256, 187.834 330, 187.224 330 C 186.613 330, 183.432 327.517, 180.153 324.481 C 174.908 319.625, 173.751 317.825, 170.524 309.496 C 166.353 298.730, 164.367 296.299, 165.299 303.097 M 124.500 317.192 C 110.192 335.107, 109.207 336.441, 110.675 335.909 C 111.296 335.684, 116.510 329.631, 122.261 322.458 C 128.013 315.284, 134.051 308.293, 135.681 306.922 C 138.250 304.760, 139.148 301.836, 137.167 302.083 C 136.800 302.129, 131.100 308.928, 124.500 317.192 M 255.500 320.086 C 250.550 322.307, 240.875 326.137, 234 328.597 C 211.363 336.695, 210 337.236, 210 338.122 C 210 338.605, 210.787 339.005, 211.750 339.012 C 212.713 339.019, 219.125 340.363, 226 341.999 C 232.875 343.635, 241.363 345.272, 244.863 345.637 L 251.226 346.299 250.532 342.192 C 249.599 336.667, 250.519 334.306, 254.413 332.237 C 256.211 331.282, 260.201 327.509, 263.278 323.854 C 271.179 314.471, 269.656 313.734, 255.500 320.086 M 128.826 327.800 C 121.831 339.490, 118.533 345.625, 119.926 344.360 C 121.334 343.080, 134.135 320.802, 133.708 320.374 C 133.557 320.224, 131.361 323.566, 128.826 327.800 M 272.036 328.949 C 269.506 332.502, 261.419 351.148, 257.037 363.533 C 252.464 376.454, 249.003 391.557, 249.001 398.592 C 248.999 410.874, 257.805 453.650, 261.171 457.706 C 262.592 459.418, 268.407 459.457, 267.687 457.750 C 263.051 446.758, 261.648 442.138, 259.977 432.363 C 256.916 414.461, 257.237 398.082, 260.929 383.818 C 264.977 368.174, 269.174 356.633, 276.102 342.091 C 279.354 335.266, 281.899 329.586, 281.757 329.468 C 281.142 328.957, 275.054 326, 274.618 326 C 274.353 326, 273.191 327.327, 272.036 328.949 M 163 331.948 C 163 335.536, 190.490 354.247, 212.855 365.882 C 231.562 375.613, 237.225 378.055, 238.547 376.959 C 239.743 375.968, 245.592 358.251, 244.933 357.615 C 244.695 357.386, 235.275 355.126, 224 352.594 C 198.911 346.958, 184.763 342.250, 172.419 335.430 C 164.855 331.251, 163 330.565, 163 331.948 M 284.526 340.512 C 273.501 363.746, 266 389.168, 266 403.300 C 266 412.094, 267.939 425.280, 270.367 433 C 271.687 437.197, 271.746 436.520, 271.245 422.965 C 270.631 406.382, 271.754 396.589, 275.931 382.075 C 280.265 367.014, 287.500 348.647, 293.762 336.809 C 293.963 336.428, 292.770 335.415, 291.110 334.557 L 288.093 332.997 284.526 340.512 M 156.609 365.251 C 156.077 367.167, 158.984 370.464, 176.243 387.528 C 192.704 403.802, 198.796 409.105, 208.750 415.824 C 215.488 420.371, 221 424.207, 221 424.346 C 221 424.759, 205.356 423.144, 193.515 421.510 L 182.531 419.993 173.265 410.766 C 167.757 405.281, 164 402.205, 164 403.181 C 164 404.083, 164.882 407.655, 165.960 411.118 C 167.037 414.581, 167.691 417.643, 167.412 417.922 C 165.940 419.393, 162.854 414.997, 157.048 403.157 C 153.499 395.921, 150.291 390, 149.918 390 C 148.846 390, 147.727 414.336, 148.494 420.949 L 149.188 426.927 154.344 428.854 C 160.338 431.095, 197.244 442.926, 207.500 445.895 C 216.081 448.379, 239.027 454, 240.586 454 C 241.348 454, 240.931 450.786, 239.321 444.250 C 238 438.887, 236.647 429.713, 236.316 423.863 L 235.712 413.226 224.490 407.038 C 204.771 396.163, 177.226 378.250, 159.866 365.011 L 157.233 363.003 156.609 365.251 M 379.927 393.564 C 360.971 402.741, 321.905 426.238, 323.294 427.627 C 324.198 428.531, 356.189 416.030, 361.837 412.566 C 374.760 404.640, 393.617 389, 390.250 389 C 389.758 389, 385.113 391.054, 379.927 393.564"
		stroke="none" fill="black" fill-rule="evenodd" />
</svg>